<?xml version="1.0" encoding="UTF-8"?><svg id="a" xmlns="http://www.w3.org/2000/svg" viewBox="0 0 30.33 37.13"><path d="M29.72,11.3C28.57,5.17,22.5,.5,15.16,.5S1.75,5.18,.6,11.3H29.72Z" style="fill:#a5712a; stroke:#a5712a; stroke-miterlimit:10;"/><path d="M1.45,22.48c2.33,5.25,7.59,8.92,13.71,8.92s11.37-3.67,13.71-8.92H1.45Z" style="fill:#a5712a; stroke:#a5712a; stroke-miterlimit:10;"/><path d="M14.17,3.75c0,1.12-.87,2.03-1.94,2.03s-1.94-.91-1.94-2.03,.87-2.03,1.94-2.03,1.94,.91,1.94,2.03Z" style="fill:#fff; stroke:#212121; stroke-miterlimit:10; stroke-width:.25px;"/><path d="M20.69,3.61c0,1.12-.87,2.03-1.94,2.03s-1.94-.91-1.94-2.03,.87-2.03,1.94-2.03,1.94,.91,1.94,2.03Z" style="fill:#fff; stroke:#212121; stroke-miterlimit:10; stroke-width:.25px;"/><path d="M20.29,4.41c0,.63-.48,1.15-1.08,1.15s-1.08-.51-1.08-1.15,.48-1.15,1.08-1.15,1.08,.51,1.08,1.15Z" style="fill:#212121; stroke:#212121; stroke-miterlimit:10; stroke-width:.25px;"/><path d="M12.89,3.14c0,.63-.48,1.15-1.08,1.15s-1.08-.51-1.08-1.15,.48-1.15,1.08-1.15,1.08,.51,1.08,1.15Z" style="fill:#212121; stroke:#212121; stroke-miterlimit:10; stroke-width:.25px;"/><line x1="13.68" y1="31.84" x2="13.68" y2="37.09" style="fill:none; stroke:#212121; stroke-miterlimit:10; stroke-width:.5px;"/><line x1="8.59" y1="36.88" x2="13.91" y2="36.88" style="fill:none; stroke:#212121; stroke-miterlimit:10; stroke-width:.5px;"/><line x1="18.03" y1="31.68" x2="18.03" y2="37.09" style="fill:none; stroke:#212121; stroke-miterlimit:10; stroke-width:.5px;"/><line x1="17.82" y1="36.88" x2="23.14" y2="36.88" style="fill:none; stroke:#212121; stroke-miterlimit:10; stroke-width:.5px;"/></svg>
