<svg version="1.1" id="snacman" xmlns="http://www.w3.org/2000/svg" x="0" y="0" viewBox="0 0 30.3 37.1" style="enable-background:new 0 0 30.3 37.1" xml:space="preserve"><style>.limb,.mouth{stroke-miterlimit:10}.limb{fill:none;stroke:#212121;stroke-width:.5}.mouth{fill:#a5712a;stroke:#a5712a}.eye-pupil,.eye-white{fill:#fff;stroke:#212121;stroke-width:.25;stroke-miterlimit:10}.eye-pupil{fill:#212121}</style><g class="limb limb-left"><path class="line-1 leg" d="M13.7 31.3v5.8"/><path class="line-2 foot" d="M8.6 36.9h5.3"/></g><g class="limb limb-right"><path class="line-3 leg" d="M18 31.4v5.7"/><path class="line-4 foot" d="M17.8 36.9h5.3"/></g><g class="mouth"><path class="path-1 mouth" d="M29.7 11.3C28.6 5.2 22.5.5 15.2.5S1.8 5.2.6 11.3h29.1z"/><path class="path-2 mouth" d="M1.5 22.5c2.3 5.2 7.6 8.9 13.7 8.9s11.4-3.7 13.7-8.9H1.5z"/></g><g class="eye eye-left"><path class="path-3 eye-white" d="M14.2 3.8c0 1.1-.9 2-1.9 2s-1.9-.9-1.9-2 .9-2 1.9-2 1.9.8 1.9 2z"/><path class="path-4 eye-pupil" d="M12.9 3.1c0 .6-.5 1.1-1.1 1.1s-1.1-.5-1.1-1.2.5-1 1.1-1 1.1.5 1.1 1.1z"/></g><g class="eye eye-right"><path class="path-5 eye-white" d="M20.7 3.6c0 1.1-.9 2-1.9 2s-1.9-.9-1.9-2 .9-2 1.9-2 1.9.9 1.9 2z"/><path class="path-6 eye eye-pupil" d="M20.3 4.4c0 .6-.5 1.2-1.1 1.2s-1.1-.5-1.1-1.2.5-1.2 1.1-1.2 1.1.6 1.1 1.2z"/></g></svg>