<?xml version="1.0" encoding="UTF-8"?>
<svg class="logo" xmlns="http://www.w3.org/2000/svg" viewBox="0 0 32.23 37.14">
    <g class="limb limb-left">
        <line class="line-1 leg" x1="14.64" y1="31.85" x2="14.64" y2="37.1" style="fill:none; stroke:#231f20; stroke-miterlimit:10; stroke-width:.5px;"/>
        <line class="line-2 foot" x1="9.55" y1="36.89" x2="14.87" y2="36.89" style="fill:none; stroke:#231f20; stroke-miterlimit:10; stroke-width:.5px;"/>
    </g>
    <g class="limb limb-right">
        <line class="line-3 leg" x1="18.98" y1="31.68" x2="18.98" y2="37.1" style="fill:none; stroke:#231f20; stroke-miterlimit:10; stroke-width:.5px;"/>
        <line class="line-4 foot" x1="18.78" y1="36.89" x2="24.1" y2="36.89" style="fill:none; stroke:#231f20; stroke-miterlimit:10; stroke-width:.5px;"/>
    </g>
    <g class="mouth">
        <path class="path-1 mouth-top" d="M30.67,11.3C29.52,5.18,23.45,.5,16.12,.5S2.71,5.18,1.56,11.3H30.67Z" style="fill:#a5712a; stroke:#a5712a; stroke-miterlimit:10;"/>
        <path class="path-2 mouth-bottom" d="M2.41,22.48c2.33,5.25,7.59,8.92,13.71,8.92s11.37-3.67,13.71-8.92H2.41Z" style="fill:#a5712a; stroke:#a5712a; stroke-miterlimit:10;"/>
    </g>
    <g class="eye eye-left">
        <path class="path-3 eye-white" d="M15.12,3.75c0,1.12-.87,2.03-1.94,2.03s-1.94-.91-1.94-2.03,.87-2.03,1.94-2.03,1.94,.91,1.94,2.03Z" style="fill:#fff; stroke:#212121; stroke-miterlimit:10; stroke-width:.25px;"/>
        <path class="path-4 eye-pupil" d="M13.84,3.15c0,.63-.48,1.15-1.08,1.15s-1.08-.51-1.08-1.15,.48-1.15,1.08-1.15,1.08,.51,1.08,1.15Z" style="fill:#212121; stroke:#231f20; stroke-miterlimit:10; stroke-width:.25px;"/>
    </g>
    <g class="eye eye-right">
        <path class="path-5 eye-white" d="M21.65,3.61c0,1.12-.87,2.03-1.94,2.03s-1.94-.91-1.94-2.03,.87-2.03,1.94-2.03,1.94,.91,1.94,2.03Z" style="fill:#fff; stroke:#212121; stroke-miterlimit:10; stroke-width:.25px;"/>
        <path class="path-6 eye-pupil" d="M21.25,4.42c0,.63-.48,1.15-1.08,1.15s-1.08-.51-1.08-1.15,.48-1.15,1.08-1.15,1.08,.51,1.08,1.15Z" style="fill:#212121; stroke:#231f20; stroke-miterlimit:10; stroke-width:.25px;"/>
    </g>
    <text class="snacman-text" transform="translate(3.94 18)" style="fill:#212121; font-family:ArialMT, Arial; font-size:6px;"><tspan x="0" y="0">snacman</tspan></text>
</svg>